<svg width="34" height="34" viewBox="0 0 34 34" fill="none" xmlns="http://www.w3.org/2000/svg">
<circle cx="17" cy="17" r="17" fill="#D1D94D"/>
<g clip-path="url(#clip0_1140_337)">
<path d="M22.9872 11.3494H11.0113C10.5463 11.3494 10.168 11.7277 10.168 12.1927V23.1566C10.168 23.6217 10.5463 24 11.0113 24H22.9872C23.4523 24 23.8306 23.6217 23.8306 23.1566V12.1928C23.8306 11.7277 23.4523 11.3494 22.9872 11.3494ZM22.8186 22.9879H11.18V12.3614H22.8186V22.9879H22.8186Z" fill="black"/>
<path d="M23.3264 14.7229H10.6758V15.7349H23.3264V14.7229Z" fill="black"/>
<path d="M13.7111 10C13.4316 10 13.2051 10.2265 13.2051 10.506V13.2048C13.2051 13.4843 13.4316 13.7108 13.7111 13.7108C13.9906 13.7108 14.2171 13.4843 14.2171 13.2048V10.506C14.2171 10.2265 13.9906 10 13.7111 10Z" fill="black"/>
<path d="M20.4572 10C20.1777 10 19.9512 10.2265 19.9512 10.506V13.2048C19.9512 13.4843 20.1777 13.7108 20.4572 13.7108C20.7367 13.7108 20.9632 13.4843 20.9632 13.2048V10.506C20.9632 10.2265 20.7367 10 20.4572 10Z" fill="black"/>
<path d="M18.9395 20.1205H15.2287C14.9492 20.1205 14.7227 20.347 14.7227 20.6265C14.7227 20.906 14.9492 21.1325 15.2287 21.1325H18.9395C19.219 21.1325 19.4455 20.906 19.4455 20.6265C19.4455 20.347 19.219 20.1205 18.9395 20.1205Z" fill="black"/>
<path d="M18.9395 17.759H15.2287C14.9492 17.759 14.7227 17.9856 14.7227 18.2651C14.7227 18.5445 14.9492 18.7711 15.2287 18.7711H18.9395C19.219 18.7711 19.4455 18.5446 19.4455 18.2651C19.4455 17.9855 19.219 17.759 18.9395 17.759Z" fill="black"/>
</g>
<defs>
<clipPath id="clip0_1140_337">
<rect width="14" height="14" fill="white" transform="translate(10 10)"/>
</clipPath>
</defs>
</svg>
