<svg width="150" height="180" viewBox="0 0 150 180" fill="none" xmlns="http://www.w3.org/2000/svg">
<path d="M9 40.5151L14.3485 33.3276L17.0014 35.2956L13.7708 39.5739L16.4023 41.5419L19.2477 37.7128L21.9006 39.6809L18.991 43.5741L23.4623 46.8898L21.3229 49.7349L9 40.5151Z" fill="white"/>
<path d="M23.7207 24.2362L26.5875 22.097L33.7117 32.0869L38.8248 28.3861L40.7716 31.0601L32.7917 36.8358L23.7207 24.2362Z" fill="white"/>
<path d="M42.9746 13.0056L51.7033 10.1819L52.7088 13.3265L47.3603 15.0592L48.1947 17.6476L52.9228 16.1288L53.9283 19.2733L49.2002 20.8135L50.0774 23.4661L55.6398 21.6692L56.6667 24.8351L47.724 27.8086L42.9746 13.0056Z" fill="white"/>
<path d="M73.1612 15.7865L78.1245 23.787H73.9741L70.765 18.5246L67.3848 23.5303H63.2344L68.5615 15.7651L63.919 8H68.0694L71.086 13.027L74.2094 8.12835H78.3599L73.1612 15.7865Z" fill="white"/>
<path d="M90.491 11.2729L93.8284 12.3853L88.9506 27.0599L85.5918 25.9475L90.491 11.2729Z" fill="white"/>
<path d="M106.705 18.4391C107.433 18.8883 109.23 20.0434 110.621 21.0061C113.637 23.1452 113.894 25.2844 112.76 27.124C112.406 27.7073 111.901 28.1842 111.299 28.5043C110.696 28.8244 110.018 28.9757 109.337 28.9423C109.74 29.5732 109.937 30.3144 109.898 31.0623C109.86 31.8101 109.589 32.5273 109.123 33.1137C107.262 35.7662 104.309 35.5737 101.571 33.6485C100.351 32.8142 98.6827 31.5093 97.998 30.9959L106.705 18.4391ZM104.352 27.9797L102.683 30.3542C102.948 30.6553 103.25 30.9213 103.582 31.1456C104.716 31.9157 105.614 31.8302 106.213 30.9745C106.812 30.1189 106.406 29.4129 105.465 28.8354L104.352 27.9797ZM107.711 23.1452L106.106 25.4341L107.069 26.1186C107.222 26.2561 107.403 26.3585 107.6 26.4186C107.797 26.4787 108.005 26.4951 108.209 26.4666C108.412 26.438 108.607 26.3653 108.78 26.2535C108.953 26.1416 109.099 25.9934 109.209 25.8192C109.317 25.6412 109.388 25.4429 109.416 25.2365C109.445 25.0301 109.43 24.82 109.374 24.6194C109.318 24.4187 109.221 24.2318 109.089 24.0702C108.958 23.9086 108.795 23.7758 108.609 23.68C108.33 23.4817 108.037 23.303 107.732 23.1452H107.711Z" fill="white"/>
<path d="M124.848 33.9693L126.987 36.793L117.253 44.0662L120.997 49.2001L118.344 51.1895L112.461 43.2961L124.848 33.9693Z" fill="white"/>
<path d="M136.358 53.0292L139.289 61.7142L136.165 62.7837L134.347 57.4358L131.78 58.3129L133.363 63.019L130.239 64.1742L128.656 59.4467L126.003 60.3665L127.886 65.9069L124.741 66.9551L121.682 57.992L136.358 53.0292Z" fill="white"/>
<path d="M141.364 88.9242V89.2237C141.214 90.0152 140.722 92.7105 140.508 93.7159C139.246 99.7697 135.266 101.502 131.244 100.668C127.222 99.8339 124.077 96.1545 125.275 90.3788C125.447 89.5873 125.896 87.5979 126.195 86.1005V85.7369L141.364 88.9242ZM137.406 91.7051L128.848 89.9296C128.72 90.3574 128.656 90.6569 128.549 91.1703C128.338 91.7814 128.263 92.4312 128.33 93.0742C128.397 93.7173 128.603 94.3378 128.936 94.8924C129.268 95.4469 129.718 95.9219 130.253 96.2841C130.789 96.6463 131.397 96.8868 132.036 96.9888C132.651 97.138 133.291 97.1491 133.911 97.0211C134.53 96.8932 135.114 96.6294 135.619 96.2489C136.124 95.8683 136.539 95.3805 136.833 94.8204C137.127 94.2604 137.294 93.642 137.32 93.01C137.374 92.5771 137.403 92.1414 137.406 91.7051V91.7051Z" fill="white"/>
<path d="M133.086 114.402L131.332 117.461L117.896 109.845L119.629 106.765L133.086 114.402Z" fill="white"/>
<path d="M123.029 128.884L116.483 135.301L114.151 132.948L118.194 128.991L116.29 127.065L112.739 130.488L110.407 128.135L113.958 124.648L111.99 122.637L107.818 126.744L105.508 124.37L112.204 117.803L123.029 128.884Z" fill="white"/>
<path d="M106.708 142.531L95.1766 148.136L93.7218 145.163L97.8936 143.023L92.5879 132.199L95.7756 130.638L101.081 141.59L105.253 139.451L106.708 142.531Z" fill="white"/>
</svg>
